<mxfile host="app.diagrams.net" modified="2023-06-05T21:40:10.930Z" agent="Mozilla/5.0 (Windows NT 10.0; Win64; x64) AppleWebKit/537.36 (KHTML, like Gecko) Chrome/112.0.0.0 Safari/537.36" etag="MwtVs1twqTOjMQGKCZNd" version="21.3.7" type="device">
  <diagram id="C5RBs43oDa-KdzZeNtuy" name="Page-1">
    <mxGraphModel dx="926" dy="476" grid="1" gridSize="10" guides="1" tooltips="1" connect="1" arrows="1" fold="1" page="1" pageScale="1" pageWidth="827" pageHeight="1169" math="0" shadow="0">
      <root>
        <mxCell id="WIyWlLk6GJQsqaUBKTNV-0" />
        <mxCell id="WIyWlLk6GJQsqaUBKTNV-1" parent="WIyWlLk6GJQsqaUBKTNV-0" />
        <mxCell id="v3SleXtMj-a5wo_fGliR-0" value="&lt;font style=&quot;font-size: 8px;&quot;&gt;__init__&lt;/font&gt;" style="rounded=0;whiteSpace=wrap;html=1;" vertex="1" parent="WIyWlLk6GJQsqaUBKTNV-1">
          <mxGeometry x="120" y="200" width="80" height="40" as="geometry" />
        </mxCell>
        <mxCell id="v3SleXtMj-a5wo_fGliR-1" value="&lt;font style=&quot;font-size: 8px;&quot;&gt;fake game&lt;/font&gt;" style="rounded=0;whiteSpace=wrap;html=1;" vertex="1" parent="WIyWlLk6GJQsqaUBKTNV-1">
          <mxGeometry x="120" y="280" width="80" height="40" as="geometry" />
        </mxCell>
        <mxCell id="v3SleXtMj-a5wo_fGliR-3" value="&lt;font style=&quot;font-size: 8px;&quot;&gt;initialize_matrix&lt;/font&gt;" style="rounded=0;whiteSpace=wrap;html=1;" vertex="1" parent="WIyWlLk6GJQsqaUBKTNV-1">
          <mxGeometry x="120" y="330" width="80" height="40" as="geometry" />
        </mxCell>
        <mxCell id="v3SleXtMj-a5wo_fGliR-4" value="&lt;font style=&quot;font-size: 8px;&quot;&gt;information_matrix&lt;/font&gt;" style="rounded=1;whiteSpace=wrap;html=1;" vertex="1" parent="WIyWlLk6GJQsqaUBKTNV-1">
          <mxGeometry x="120" y="380" width="90" height="20" as="geometry" />
        </mxCell>
        <mxCell id="v3SleXtMj-a5wo_fGliR-5" value="&lt;font style=&quot;font-size: 8px;&quot;&gt;update_game&lt;/font&gt;" style="rounded=0;whiteSpace=wrap;html=1;" vertex="1" parent="WIyWlLk6GJQsqaUBKTNV-1">
          <mxGeometry x="400" y="200" width="80" height="40" as="geometry" />
        </mxCell>
        <mxCell id="v3SleXtMj-a5wo_fGliR-6" value="&lt;font style=&quot;font-size: 8px;&quot;&gt;update_info_matrix&lt;/font&gt;" style="rounded=0;whiteSpace=wrap;html=1;" vertex="1" parent="WIyWlLk6GJQsqaUBKTNV-1">
          <mxGeometry x="400" y="250" width="80" height="30" as="geometry" />
        </mxCell>
        <mxCell id="v3SleXtMj-a5wo_fGliR-7" value="&lt;font style=&quot;font-size: 8px;&quot;&gt;player_card_count&lt;/font&gt;" style="rounded=1;whiteSpace=wrap;html=1;" vertex="1" parent="WIyWlLk6GJQsqaUBKTNV-1">
          <mxGeometry x="120" y="440" width="90" height="20" as="geometry" />
        </mxCell>
        <mxCell id="v3SleXtMj-a5wo_fGliR-8" value="&lt;font style=&quot;font-size: 8px;&quot;&gt;player_set_card_count&lt;/font&gt;" style="rounded=1;whiteSpace=wrap;html=1;" vertex="1" parent="WIyWlLk6GJQsqaUBKTNV-1">
          <mxGeometry x="120" y="410" width="90" height="20" as="geometry" />
        </mxCell>
        <mxCell id="v3SleXtMj-a5wo_fGliR-9" value="&lt;font style=&quot;font-size: 8px;&quot;&gt;set_card_count&lt;/font&gt;" style="rounded=1;whiteSpace=wrap;html=1;" vertex="1" parent="WIyWlLk6GJQsqaUBKTNV-1">
          <mxGeometry x="120" y="470" width="90" height="20" as="geometry" />
        </mxCell>
        <mxCell id="v3SleXtMj-a5wo_fGliR-10" value="&lt;font style=&quot;font-size: 8px;&quot;&gt;active_cards - 8x6&lt;/font&gt;" style="rounded=1;whiteSpace=wrap;html=1;" vertex="1" parent="WIyWlLk6GJQsqaUBKTNV-1">
          <mxGeometry x="120" y="500" width="90" height="20" as="geometry" />
        </mxCell>
        <mxCell id="v3SleXtMj-a5wo_fGliR-11" value="&lt;font style=&quot;font-size: 8px;&quot;&gt;active_cards&lt;/font&gt;" style="rounded=1;whiteSpace=wrap;html=1;" vertex="1" parent="WIyWlLk6GJQsqaUBKTNV-1">
          <mxGeometry x="120" y="530" width="90" height="20" as="geometry" />
        </mxCell>
        <mxCell id="v3SleXtMj-a5wo_fGliR-12" value="&lt;font style=&quot;font-size: 6px;&quot;&gt;Information matrix is&amp;nbsp; nx8x6 and has 0,1, e&lt;/font&gt;" style="text;html=1;strokeColor=none;fillColor=none;align=center;verticalAlign=middle;whiteSpace=wrap;rounded=0;" vertex="1" parent="WIyWlLk6GJQsqaUBKTNV-1">
          <mxGeometry x="210" y="380" width="120" height="20" as="geometry" />
        </mxCell>
        <mxCell id="v3SleXtMj-a5wo_fGliR-13" value="&lt;span style=&quot;font-size: 6px;&quot;&gt;nx8 matrix with inferred card count&lt;/span&gt;" style="text;html=1;strokeColor=none;fillColor=none;align=center;verticalAlign=middle;whiteSpace=wrap;rounded=0;" vertex="1" parent="WIyWlLk6GJQsqaUBKTNV-1">
          <mxGeometry x="210" y="410" width="100" height="20" as="geometry" />
        </mxCell>
        <mxCell id="v3SleXtMj-a5wo_fGliR-14" value="&lt;span style=&quot;font-size: 6px;&quot;&gt;cards per player - actual&lt;/span&gt;" style="text;html=1;strokeColor=none;fillColor=none;align=center;verticalAlign=middle;whiteSpace=wrap;rounded=0;" vertex="1" parent="WIyWlLk6GJQsqaUBKTNV-1">
          <mxGeometry x="210" y="440" width="50" height="20" as="geometry" />
        </mxCell>
        <mxCell id="v3SleXtMj-a5wo_fGliR-15" value="&lt;span style=&quot;font-size: 6px;&quot;&gt;static value 8 - actual&lt;/span&gt;" style="text;html=1;strokeColor=none;fillColor=none;align=center;verticalAlign=middle;whiteSpace=wrap;rounded=0;" vertex="1" parent="WIyWlLk6GJQsqaUBKTNV-1">
          <mxGeometry x="210" y="472.5" width="40" height="15" as="geometry" />
        </mxCell>
        <mxCell id="v3SleXtMj-a5wo_fGliR-16" value="&lt;span style=&quot;font-size: 6px;&quot;&gt;8x6 array and has 0,1, e&lt;/span&gt;" style="text;html=1;strokeColor=none;fillColor=none;align=center;verticalAlign=middle;whiteSpace=wrap;rounded=0;" vertex="1" parent="WIyWlLk6GJQsqaUBKTNV-1">
          <mxGeometry x="210" y="502.5" width="70" height="15" as="geometry" />
        </mxCell>
        <mxCell id="v3SleXtMj-a5wo_fGliR-17" value="&lt;span style=&quot;font-size: 6px;&quot;&gt;replace e with 0,1&lt;/span&gt;" style="text;html=1;strokeColor=none;fillColor=none;align=center;verticalAlign=middle;whiteSpace=wrap;rounded=0;" vertex="1" parent="WIyWlLk6GJQsqaUBKTNV-1">
          <mxGeometry x="480" y="250" width="120" height="20" as="geometry" />
        </mxCell>
        <mxCell id="v3SleXtMj-a5wo_fGliR-18" value="&lt;font style=&quot;font-size: 8px;&quot;&gt;deep_inference&lt;/font&gt;" style="rounded=0;whiteSpace=wrap;html=1;" vertex="1" parent="WIyWlLk6GJQsqaUBKTNV-1">
          <mxGeometry x="400" y="290" width="80" height="30" as="geometry" />
        </mxCell>
        <mxCell id="v3SleXtMj-a5wo_fGliR-19" value="&lt;font style=&quot;font-size: 8px;&quot;&gt;inference_list&lt;/font&gt;" style="rounded=1;whiteSpace=wrap;html=1;" vertex="1" parent="WIyWlLk6GJQsqaUBKTNV-1">
          <mxGeometry x="120" y="560" width="90" height="20" as="geometry" />
        </mxCell>
        <mxCell id="v3SleXtMj-a5wo_fGliR-20" value="&lt;font style=&quot;font-size: 8px;&quot;&gt;consistency funcs&lt;/font&gt;" style="rounded=0;whiteSpace=wrap;html=1;" vertex="1" parent="WIyWlLk6GJQsqaUBKTNV-1">
          <mxGeometry x="400" y="360" width="80" height="30" as="geometry" />
        </mxCell>
        <mxCell id="v3SleXtMj-a5wo_fGliR-21" value="&lt;font style=&quot;&quot;&gt;&lt;font style=&quot;font-size: 6px;&quot;&gt;&lt;font style=&quot;&quot;&gt;1. a card cannot be with more than one person - hard change&lt;br&gt;2.&lt;/font&gt;card count matches player_card_count infer other e to be zero for that player&lt;br&gt;&lt;/font&gt;&lt;font style=&quot;border-color: var(--border-color); font-size: 6px;&quot;&gt;3.&lt;/font&gt;&lt;font style=&quot;font-size: 6px;&quot;&gt;card count matches player_card_count infer other e to be zero for that player&lt;br&gt;&lt;/font&gt;&lt;font style=&quot;font-size: 6px;&quot;&gt;detect_hard_changes first then inference passes&lt;/font&gt;&lt;br&gt;&lt;/font&gt;" style="rounded=0;whiteSpace=wrap;html=1;" vertex="1" parent="WIyWlLk6GJQsqaUBKTNV-1">
          <mxGeometry x="490" y="360" width="240" height="100" as="geometry" />
        </mxCell>
        <mxCell id="v3SleXtMj-a5wo_fGliR-22" value="" style="endArrow=none;dashed=1;html=1;rounded=0;" edge="1" parent="WIyWlLk6GJQsqaUBKTNV-1">
          <mxGeometry width="50" height="50" relative="1" as="geometry">
            <mxPoint x="110" y="480" as="sourcePoint" />
            <mxPoint x="110" y="420" as="targetPoint" />
          </mxGeometry>
        </mxCell>
        <mxCell id="v3SleXtMj-a5wo_fGliR-23" value="&lt;font style=&quot;font-size: 8px;&quot;&gt;information_matrix&lt;/font&gt;" style="rounded=1;whiteSpace=wrap;html=1;" vertex="1" parent="WIyWlLk6GJQsqaUBKTNV-1">
          <mxGeometry x="400" y="480" width="90" height="20" as="geometry" />
        </mxCell>
        <mxCell id="v3SleXtMj-a5wo_fGliR-25" value="&lt;font style=&quot;font-size: 8px;&quot;&gt;truth_matrix&lt;/font&gt;" style="rounded=1;whiteSpace=wrap;html=1;" vertex="1" parent="WIyWlLk6GJQsqaUBKTNV-1">
          <mxGeometry x="400" y="520" width="90" height="20" as="geometry" />
        </mxCell>
        <mxCell id="v3SleXtMj-a5wo_fGliR-26" value="&lt;font style=&quot;font-size: 8px;&quot;&gt;inference_matrix&lt;/font&gt;" style="rounded=1;whiteSpace=wrap;html=1;" vertex="1" parent="WIyWlLk6GJQsqaUBKTNV-1">
          <mxGeometry x="500" y="520" width="90" height="20" as="geometry" />
        </mxCell>
        <mxCell id="v3SleXtMj-a5wo_fGliR-27" value="&lt;font style=&quot;font-size: 8px;&quot;&gt;truth_prob_matrix&lt;/font&gt;" style="rounded=1;whiteSpace=wrap;html=1;" vertex="1" parent="WIyWlLk6GJQsqaUBKTNV-1">
          <mxGeometry x="400" y="550" width="90" height="20" as="geometry" />
        </mxCell>
        <mxCell id="v3SleXtMj-a5wo_fGliR-28" value="&lt;font style=&quot;font-size: 8px;&quot;&gt;prob_matrix&lt;/font&gt;" style="rounded=1;whiteSpace=wrap;html=1;" vertex="1" parent="WIyWlLk6GJQsqaUBKTNV-1">
          <mxGeometry x="500" y="550" width="90" height="20" as="geometry" />
        </mxCell>
        <mxCell id="v3SleXtMj-a5wo_fGliR-29" value="&lt;font style=&quot;font-size: 8px;&quot;&gt;shannon_info_matrix&lt;/font&gt;" style="rounded=1;whiteSpace=wrap;html=1;" vertex="1" parent="WIyWlLk6GJQsqaUBKTNV-1">
          <mxGeometry x="500" y="580" width="90" height="20" as="geometry" />
        </mxCell>
        <mxCell id="v3SleXtMj-a5wo_fGliR-30" value="&lt;h1&gt;&lt;font style=&quot;font-size: 6px;&quot;&gt;&lt;span style=&quot;background-color: initial; font-weight: normal;&quot;&gt;1/ sum(array)&lt;/span&gt;&lt;br&gt;&lt;/font&gt;&lt;/h1&gt;&lt;div&gt;&lt;span style=&quot;background-color: initial; font-weight: normal;&quot;&gt;&lt;font style=&quot;font-size: 6px;&quot;&gt;48 arrays&lt;/font&gt;&lt;/span&gt;&lt;/div&gt;&lt;div&gt;&lt;span style=&quot;background-color: initial; font-weight: normal;&quot;&gt;&lt;font style=&quot;font-size: 6px;&quot;&gt;array = [0 0 e e e e]&lt;/font&gt;&lt;/span&gt;&lt;/div&gt;&lt;div&gt;&lt;span style=&quot;background-color: initial; font-weight: normal;&quot;&gt;&lt;font style=&quot;font-size: 6px;&quot;&gt;inference array = [ 0 0 1 0 0 0 ]&lt;/font&gt;&lt;/span&gt;&lt;/div&gt;&lt;div&gt;&lt;span style=&quot;background-color: initial; font-size: 6px;&quot;&gt;set_count_inference = [0 0 0 0 0 0]&lt;/span&gt;&lt;/div&gt;&lt;div&gt;&lt;font style=&quot;font-size: 6px;&quot;&gt;player_count_inference = [ 0 0 0 0 0 0]&lt;/font&gt;&lt;/div&gt;&lt;div&gt;&lt;span style=&quot;background-color: initial; font-size: 12px; font-weight: normal;&quot;&gt;&lt;br&gt;&lt;/span&gt;&lt;/div&gt;" style="text;html=1;strokeColor=none;fillColor=none;spacing=5;spacingTop=-20;whiteSpace=wrap;overflow=hidden;rounded=0;" vertex="1" parent="WIyWlLk6GJQsqaUBKTNV-1">
          <mxGeometry x="620" y="480" width="260" height="180" as="geometry" />
        </mxCell>
      </root>
    </mxGraphModel>
  </diagram>
</mxfile>
